PathFileType	4	(X/Y/Z)	RBDS09\RBDS09runT35.trc
DataRate	CameraRate	NumFrames	NumMarkers	Units	OrigDataRate	OrigDataStartFrame	OrigNumFrames
150.000000	150.000000	4	33	mm	150.000000	562	4500
Frame#	Time	L.ASIS			L.Heel.Bottom			L.Heel.Lateral			L.Heel.Top			L.Iliac.Crest			L.MT1			L.MT5			L.PSIS			L.Shank.Bottom.Lateral			L.Shank.Bottom.Medial			L.Shank.Top.Lateral			L.Shank.Top.Medial			L.Thigh.Bottom.Lateral			L.Thigh.Bottom.Medial			L.Thigh.Top.Lateral			L.Thigh.Top.Medial			R.ASIS			R.ASY			R.Heel.Bottom			R.Heel.Lateral			R.Heel.Top			R.Iliac.Crest			R.MT1			R.MT5			R.PSIS			R.Shank.Bottom.Lateral			R.Shank.Bottom.Medial			R.Shank.Top.Lateral			R.Shank.Top.Medial			R.Thigh.Bottom.Lateral			R.Thigh.Bottom.Medial			R.Thigh.Top.Lateral			R.Thigh.Top.Medial			
		X1	Y1	Z1	X2	Y2	Z2	X3	Y3	Z3	X4	Y4	Z4	X5	Y5	Z5	X6	Y6	Z6	X7	Y7	Z7	X8	Y8	Z8	X9	Y9	Z9	X10	Y10	Z10	X11	Y11	Z11	X12	Y12	Z12	X13	Y13	Z13	X14	Y14	Z14	X15	Y15	Z15	X16	Y16	Z16	X17	Y17	Z17	X18	Y18	Z18	X19	Y19	Z19	X20	Y20	Z20	X21	Y21	Z21	X22	Y22	Z22	X23	Y23	Z23	X24	Y24	Z24	X25	Y25	Z25	X26	Y26	Z26	X27	Y27	Z27	X28	Y28	Z28	X29	Y29	Z29	X30	Y30	Z30	X31	Y31	Z31	X32	Y32	Z32	X33	Y33	Z33	

563	3.746666666666667	2297.097197699925	945.6353554243739	880.7163449624992	2114.856239729471	31.94312888222352	1000.175565164809	2144.720458000456	53.00402110219143	956.2053399900718	2127.618892031865	80.32902553814657	1003.267312110163	2214.678514751904	980.0206606169243	850.9942782818985	2334.217632093682	38.05057189124048	1015.29081926404	2284.45723929523	39.28655549358775	914.3319955037538	2142.595008944274	953.5932609558582	981.46127069203	2206.844191250696	166.9789497867757	926.4396416564416	2171.724608880621	181.4381945469319	964.4958217611395	2219.037611252459	244.2899972756664	907.1082782424853	2187.58691476018	259.4879427992185	947.8403318630894	2269.631507605014	571.965500317874	869.6036264361477	2228.173033216852	560.3329350069307	929.0555705838341	2226.177103272322	673.0224834727377	860.662904669311	2189.286875335205	663.6007219548966	919.1258213135186	2319.025320869435	919.8390106577604	1115.407658391262	2247811.536576645	-3032080.095817671	-7925522.923047028	1910.927609712982	510.9347223627562	1053.237705566492	1926.761527429984	482.3343650384521	1103.785496405827	1958.337693855553	500.7670363273249	1059.089548123291	2263.390041235242	974.2080810971432	1162.719201350204	1934.343389305838	300.4807094012527	1044.902850819685	1909.122513255285	343.9302945843494	1145.504816112564	2150.212942578366	945.0890214577219	1056.010809463427	2051.126258901351	482.6162693480892	1117.595007957118	2054.020843719112	497.3367022971038	1068.156818119724	2133.947765737708	500.2782213015308	1125.648826001893	2133.112868866097	514.9969699930924	1074.892442079282	2347.176509274047	534.0445950090937	1165.679442364753	2295.027213347949	513.1644091821087	1121.290849326127	2296.845057518427	631.1667497537386	1176.422985343189	2244.548467930949	608.5273155951307	1137.685844046419	
564	3.753333333333333	2295.305174398492	944.3431131845782	880.2311858644091	2091.587626292239	33.40404943190769	999.7380031920178	2121.48622532466	54.08942744841461	955.6225368273822	2104.42761364364	81.69797272489858	1002.472492911622	2211.57113976791	977.7299941318105	850.8333766745803	2310.662684747046	38.70687157209523	1014.269048382972	2260.78784284923	39.44553874847202	913.5507920549154	2140.593515403639	952.1822236246512	981.3085360237112	2186.961338167412	167.6605696916809	925.6119492339487	2151.957367663077	183.3317296863767	963.2892466920999	2201.591308951757	244.4990454716586	906.1597252715857	2170.449810819665	260.8761837620352	946.7140840665734	2261.480325256694	570.188044683749	868.3470502906998	2219.859950319986	559.4584564102749	927.8802303056796	2220.35895195446	672.1922134221707	859.719718695282	2183.311573367662	663.489354010686	918.2426511661622	2316.624563276498	918.9478056622808	1115.516675185933	2260729.226698237	-3049756.15881404	-7971635.239634566	1923.288057554219	504.1575591860212	1057.899060818086	1940.614657109672	475.1426659450934	1107.684948049127	1971.068242560844	495.5064098106494	1063.086787581956	2257.746857671177	971.9930743801359	1162.695237829886	1953.936196078773	294.8035089660724	1045.545910062982	1928.033837974039	335.5735365350147	1147.240120607876	2147.679190347103	943.4222270871003	1055.699456822662	2065.519312077053	478.8601457334715	1120.566595874748	2067.695101331728	494.4652816136351	1071.348841978641	2147.817942243896	498.5650015491127	1128.528156383847	2146.277113525026	514.0002174700826	1077.990819693572	2359.374285088105	538.0232862410559	1166.009409673885	2307.853386475953	514.7104048472823	1122.013720478877	2304.613013320512	632.7825643319961	1177.057950666976	2252.936617823692	607.7761020895077	1138.769430819814	
565	3.76	2293.84990768817	943.503772268164	879.7621742549067	2068.393525132815	35.26818775328184	999.4081764207251	2098.388441991287	55.47354844814127	955.1346980104407	2081.375845494964	83.46130437107313	1001.719482304113	2208.895929865719	976.5501805400817	850.7347717746493	2287.140697577523	39.22912991128903	1013.398255501124	2237.173671789967	39.49707390238315	912.9295994391485	2138.995529546974	951.4812097136985	981.0592310225777	2166.740539178596	168.6136704883574	924.8915440239022	2131.93505687097	185.3739606766858	962.278392635747	2183.500155958889	244.9367899617169	905.3235985521011	2152.748354637628	262.3623911392484	945.78221903924	2252.385071094988	568.8245259134297	867.2027082111593	2210.493028671705	559.1758366990439	926.7447469459584	2214.035324762736	671.9048722323938	858.8620701676768	2176.777113056818	664.0763006976471	917.4250875021157	2314.530043161553	918.9783939359888	1115.693528349154	2273696.270797488	-3067500.7779636	-8017926.040754156	1935.339815045333	495.6253684806337	1061.93108124934	1954.232787648629	466.5262302128991	1111.081048932857	1983.475644023727	488.8277394773487	1066.551147010478	2251.865249419181	970.8195184361348	1162.69060583186	1974.351686089899	287.7956193352232	1046.320678436268	1947.460386070574	326.0470910477127	1148.876324123263	2145.56710307794	942.5730387818879	1055.321220565569	2079.4501856875	474.2680517135252	1123.267926524016	2080.798399181402	490.8153826089666	1074.324808088065	2160.995355057328	496.5996432322688	1131.233394914338	2158.629035064513	512.7938968491447	1080.943739352109	2371.178001774344	543.109383053819	1166.030881801638	2320.401917543943	517.4837566886248	1122.31497742883	2312.219039852395	635.4635889090461	1177.355180614546	2261.389644274967	608.2909518227935	1139.283692873529	
566	3.766666666666667	2292.728890131906	943.0759910503663	879.260309432536	2045.26031441512	37.65058699719582	999.220888501746	2075.431824100592	57.2698433565371	954.7912545643192	2058.501306154705	85.72854590479611	1001.077945659668	2206.747268242971	976.4102173389225	850.6676763767222	2263.639146490205	39.53176065811029	1012.763246195487	2213.59840790661	39.47448003384825	912.5386150743868	2137.81108145764	951.4630841377054	980.7387714676117	2146.257052155745	169.9162829162179	924.3500186672676	2111.726647686641	187.6496641619345	961.5421343751242	2164.873356631157	245.7060480304555	904.6636940922999	2134.587709139025	264.0509202623214	945.1111819550255	2242.509492213538	567.9459738375962	866.2605413433167	2200.265864187972	559.5478053873584	925.7478588500154	2207.301389329591	672.1799132500142	858.1423134518736	2169.809304383848	665.3791302504845	916.7332918547399	2312.819986755752	919.8833825953203	1115.847259371929	2286712.762805882	-3085314.085944525	-8064395.671153835	1947.199458136021	485.3739471679093	1065.215655151287	1967.700055910874	456.5816347468861	1113.892999123778	1995.641273037004	480.7491217936341	1069.382558883495	2246.069292772205	970.625747469817	1162.662558457915	1995.550884762433	279.593883020762	1047.276022911912	1967.413700299885	315.5673536341721	1150.435558037304	2143.90590322549	942.5224184073146	1054.897744915098	2092.949693405931	468.8875349896367	1125.611397457958	2093.370096681482	486.3671742584758	1076.981611980302	2173.493048795654	494.3478224889132	1133.659569281362	2170.190367517946	511.2832941209697	1083.632684626193	2382.420606746325	549.1579070617092	1165.793206251127	2332.478845988144	521.3610967244795	1122.263612738936	2319.5558690712	639.1220320401052	1177.329916646931	2269.761129164398	609.9937291136205	1139.270763381013	
